#!OML:ASF I:\Actors\actors\Patient Classification 2\Patient 1\Session 1\actor1.ASF
:FULLY-SPECIFIED
:DEGREES
380
root -2.4123 17.3537 5.6898 -3.63098 42.2333 -2.84588
lowerback 16.3568 -0.901633 13.537
upperback 2.47162 1.57764 3.69922
thorax -6.27095 0.559587 -3.97599
lowerneck -15.0466 4.33802 1.59898
upperneck 35.5425 8.30194 -4.3652
head 15.2193 3.3742 -0.611057
rclavicle 4.21423e-014 3.02153e-014
rhumerus 59.6207 55.6871 -30.0922
rradius 73.2951
rwrist -6.95982
rhand -1.07046 -36.351
rfingers 7.12502
rthumb 24.5647 -64.7951
lclavicle 4.21423e-014 3.02153e-014
lhumerus 39.0276 25.9852 64.9264
lradius 27.173
lwrist -33.6199
lhand 19.8289 -17.606
lfingers 7.12502
lthumb 44.3757 6.13529
rfemur 35.9475 -25.0854 21.5473
rtibia -38.337
rfoot -4.64863 -29.5849
rtoes -4.55541
lfemur 17.7091 -11.9688 -10.5818
ltibia -41.1654
lfoot 25.4505 -0.141664
ltoes -8.98642
381
root -2.41247 17.3526 5.72046 -3.17067 42.237 -2.54547
lowerback 15.6435 -0.926323 13.5395
upperback 2.20225 1.43824 3.6619
thorax -6.19569 0.482533 -3.97965
lowerneck -14.3405 4.28715 1.12409
upperneck 35.5938 8.32952 -4.1995
head 15.0454 3.36907 -0.473801
rclavicle 2.0276e-014 0
rhumerus 57.4557 56.2621 -31.8355
rradius 74.7233
rwrist -6.5795
rhand -0.944551 -35.7012
rfingers 7.12502
rthumb 24.6854 -64.1289
lclavicle 2.0276e-014 0
lhumerus 37.6416 25.2808 64.2057
lradius 28.7596
lwrist -31.1783
lhand 20.4791 -17.5953
lfingers 7.12502
lthumb 44.9811 5.91171
rfemur 35.8727 -25.1491 21.4603
rtibia -38.6135
rfoot -4.4853 -29.6591
rtoes -4.8491
lfemur 17.5731 -11.9157 -10.7122
ltibia -41.3001
lfoot 25.5701 -0.112774
ltoes -8.52437
382
root -2.4128 17.3469 5.74674 -2.74945 42.2128 -2.35327
lowerback 14.9301 -0.909289 13.5895
upperback 1.9665 1.36265 3.6723
thorax -6.07116 0.440727 -3.97199
lowerneck -13.8289 4.19532 0.718767
upperneck 35.7361 8.3149 -4.12971
head 14.9697 3.33511 -0.390315
rclavicle 2.8625e-014 3.18055e-015
rhumerus 54.5663 56.8761 -34.1029
rradius 76.4427
rwrist -6.38281
rhand -0.6429 -35.3807
rfingers 7.12502
rthumb 24.9744 -63.7685
lclavicle 2.8625e-014 3.18055e-015
lhumerus 35.8828 24.3176 63.2953
lradius 30.8217
lwrist -28.1156
lhand 20.8633 -17.5587
lfingers 7.12502
lthumb 45.3384 5.80631
rfemur 35.793 -25.2777 21.4394
rtibia -38.9623
rfoot -4.27577 -29.6681
rtoes -5.11157
lfemur 17.4283 -11.8032 -10.7563
ltibia -41.5267
lfoot 25.7609 -0.0149229
ltoes -7.71657
383
root -2.41215 17.3333 5.76725 -2.40099 42.2009 -2.26307
lowerback 14.2589 -0.867374 13.7035
upperback 1.7648 1.33602 3.70621
thorax -5.92216 0.424907 -3.98481
lowerneck -13.4818 4.08497 0.613356
upperneck 35.9328 8.30162 -4.35963
head 14.9944 3.29577 -0.47712
rclavicle 9.10434e-014 1.59028e-014
rhumerus 50.7801 57.4801 -37.2722
rradius 78.2058
rwrist -6.58498
rhand 0.121462 -35.4581
rfingers 7.12502
rthumb 25.7067 -63.7421
lclavicle 9.10434e-014 1.59028e-014
lhumerus 34.0968 23.3787 62.5211
lradius 32.8723
lwrist -24.8829
lhand 20.9322 -17.4174
lfingers 7.12502
lthumb 45.4024 5.92182
rfemur 35.7534 -25.401 21.4911
rtibia -39.3897
rfoot -4.10218 -29.6937
rtoes -4.98221
lfemur 17.2936 -11.658 -10.738
ltibia -41.8177
lfoot 25.9614 0.0253062
ltoes -7.39577
384
root -2.41089 17.3141 5.78196 -2.16393 42.1781 -2.20248
lowerback 13.7423 -0.82632 13.9044
upperback 1.61094 1.34364 3.73365
thorax -5.79788 0.424742 -4.06031
lowerneck -13.2903 3.93215 0.433281
upperneck 36.1186 8.20124 -4.48039
head 15.0357 3.21876 -0.516729
rclavicle 5.56597e-014 -2.38542e-014
rhumerus 46.2261 57.9966 -41.4382
rradius 79.2345
rwrist -6.62045
rhand 0.808728 -34.7722
rfingers 7.12502
rthumb 26.3648 -62.9593
lclavicle 5.56597e-014 -2.38542e-014
lhumerus 32.5915 22.5906 61.929
lradius 34.2795
lwrist -22.1618
lhand 20.8077 -17.0038
lfingers 7.12502
lthumb 45.2868 6.38193
rfemur 35.8307 -25.5262 21.5132
rtibia -39.8735
rfoot -3.79419 -29.7117
rtoes -5.00159
lfemur 17.2711 -11.5275 -10.7279
ltibia -42.1599
lfoot 26.1743 0.0654345
ltoes -7.46558
385
root -2.41076 17.2938 5.79227 -2.02052 42.1421 -2.1408
lowerback 13.3249 -0.783142 14.198
upperback 1.52075 1.37677 3.74393
thorax -5.65164 0.439302 -4.21042
lowerneck -13.1528 3.84029 0.683546
upperneck 36.3288 8.29086 -5.16128
head 15.1697 3.20561 -0.830665
rclavicle -6.02318e-014 -5.08889e-014
rhumerus 41.7079 58.3427 -45.881
rradius 79.2762
rwrist -6.33013
rhand 1.33552 -34.4601
rfingers 7.12502
rthumb 26.8689 -62.5708
lclavicle -6.02318e-014 -5.08889e-014
lhumerus 31.5989 21.9826 61.5852
lradius 34.66
lwrist -20.8586
lhand 20.6249 -16.4984
lfingers 7.12502
lthumb 45.1168 6.95502
rfemur 36.0118 -25.7304 21.4648
rtibia -40.3756
rfoot -3.27585 -29.6408
rtoes -5.60396
lfemur 17.3609 -11.3661 -10.7378
ltibia -42.538
lfoot 26.424 0.155126
ltoes -7.24414
386
root -2.4124 17.2736 5.80024 -2.02438 42.1137 -2.18428
lowerback 12.9464 -0.746229 14.6107
upperback 1.51246 1.41634 3.76341
thorax -5.43339 0.4638 -4.41644
lowerneck -13.0697 3.90999 1.85858
upperneck 36.6489 8.8031 -6.91397
head 15.5254 3.3588 -1.69051
rclavicle 2.78299e-015 -1.74931e-014
rhumerus 38.0402 58.4968 -49.7413
rradius 78.4621
rwrist -5.79293
rhand 1.75747 -34.617
rfingers 7.12502
rthumb 27.2726 -62.6649
lclavicle 2.78299e-015 -1.74931e-014
lhumerus 31.3213 21.8943 61.8695
lradius 33.9014
lwrist -21.7728
lhand 20.6368 -16.2832
lfingers 7.12502
lthumb 45.1278 7.16589
rfemur 36.2222 -25.8926 21.4855
rtibia -40.7702
rfoot -2.80795 -29.5766
rtoes -6.31352
lfemur 17.4888 -11.1902 -10.6789
ltibia -42.8439
lfoot 26.6419 0.161052
ltoes -7.32515
